#!OML:ASF F:\twosubjects\two\Thursday\Session 1\justin.ASF
:FULLY-SPECIFIED
:DEGREES
862
root 10.7095 17.8154 -12.0456 0.749846 -49.5039 4.98027
lowerback -2.38155 2.57031 -3.30253
upperback -0.340896 3.50613 0.384026
thorax 0.761367 1.74374 2.33969
lowerneck -21.428 7.04259 -3.11604
upperneck 25.7982 11.5493 -1.59975
head 11.9545 4.58332 1.78305
rclavicle -6.54002e-014 4.37326e-015
rhumerus -27.9879 -13.7391 -81.1051
rradius 27.1331
rwrist 0.582267
rhand -16.2555 13.4391
rfingers 7.12502
rthumb 9.95366 -16.3056
lclavicle -6.54002e-014 4.37326e-015
lhumerus -29.2832 9.41675 83.5755
lradius 26.8867
lwrist -14.886
lhand -1.34547 39.9979
lfingers 7.12502
lthumb 24.301 68.4775
rfemur -4.43716 -3.5259 6.55281
rtibia 19.787
rfoot -14.8542 -16.2845
rtoes -17.2524
lfemur -6.27201 10.1765 -25.9697
ltibia 16.6057
lfoot -13.8473 -0.537734
ltoes -9.53187
863
root 10.7087 17.8115 -12.0461 0.699578 -49.4905 5.00847
lowerback -2.33775 2.54246 -3.33219
upperback -0.348216 3.46796 0.395196
thorax 0.729333 1.72528 2.36433
lowerneck -21.3021 7.03676 -3.14923
upperneck 25.7592 11.5622 -1.66731
head 11.9181 4.58068 1.75883
rclavicle -1.635e-014 5.96354e-015
rhumerus -27.9948 -13.5213 -81.1954
rradius 27.2227
rwrist 0.47634
rhand -16.3653 12.9209
rfingers 7.12502
rthumb 9.84776 -16.8288
lclavicle -1.635e-014 5.96354e-015
lhumerus -29.4389 9.83619 83.4545
lradius 27.0392
lwrist -15.3059
lhand -1.16637 40.0544
lfingers 7.12502
lthumb 24.4727 68.511
rfemur -4.39796 -3.55307 6.53646
rtibia 19.7961
rfoot -14.8979 -16.387
rtoes -17.388
lfemur -6.24036 10.3557 -25.9869
ltibia 16.5995
lfoot -13.97 -0.678357
ltoes -10.4703
864
root 10.7084 17.8089 -12.0447 0.892689 -49.4184 4.79527
lowerback -2.36258 2.51777 -3.18899
upperback -0.360218 3.4318 0.433104
thorax 0.739342 1.70752 2.32355
lowerneck -21.2729 7.01284 -3.17751
upperneck 25.8101 11.5443 -1.68307
head 11.9322 4.56531 1.75493
rclavicle 2.62893e-014 1.03368e-014
rhumerus -27.9947 -13.3845 -81.25
rradius 27.3136
rwrist 0.481452
rhand -16.2322 12.6061
rfingers 7.12502
rthumb 9.97617 -17.1375
lclavicle 2.62893e-014 1.03368e-014
lhumerus -29.4581 10.0675 83.4047
lradius 27.0172
lwrist -15.5381
lhand -1.24589 39.9861
lfingers 7.12502
lthumb 24.3965 68.453
rfemur -4.40671 -3.664 6.68505
rtibia 19.8288
rfoot -14.9511 -16.3468
rtoes -17.2979
lfemur -6.26262 10.3964 -25.8511
ltibia 16.5718
lfoot -13.902 -0.721744
ltoes -10.9273
865
root 10.7086 17.8103 -12.0438 0.992481 -49.3757 4.79381
lowerback -2.50031 2.4921 -3.2017
upperback -0.351419 3.40267 0.434651
thorax 0.826462 1.69121 2.33885
lowerneck -21.3968 6.9674 -2.96301
upperneck 25.9146 11.5054 -1.96505
head 12.0346 4.5198 1.62267
rclavicle -1.49809e-013 -2.38542e-015
rhumerus -27.9439 -13.2695 -81.256
rradius 27.3587
rwrist 0.447584
rhand -15.9227 12.8278
rfingers 7.12502
rthumb 10.2748 -16.9012
lclavicle -1.49809e-013 -2.38542e-015
lhumerus -29.3137 10.1194 83.4093
lradius 26.8704
lwrist -15.5869
lhand -1.35814 39.9431
lfingers 7.12502
lthumb 24.2889 68.4244
rfemur -4.49744 -3.67486 6.68177
rtibia 19.8425
rfoot -14.9706 -16.3019
rtoes -17.0603
lfemur -6.37907 10.2875 -25.882
ltibia 16.5733
lfoot -13.8137 -0.658233
ltoes -10.836
866
root 10.708 17.8109 -12.0435 0.955428 -49.3854 4.86734
lowerback -2.55773 2.48029 -3.26679
upperback -0.335184 3.39101 0.427872
thorax 0.872646 1.68413 2.37129
lowerneck -21.1334 6.91321 -2.70124
upperneck 25.5663 11.433 -2.41943
head 11.9008 4.47275 1.38523
rclavicle 9.07452e-014 -9.54166e-015
rhumerus -27.9146 -13.02 -81.3071
rradius 27.4178
rwrist 0.215624
rhand -15.8152 12.9221
rfingers 7.12502
rthumb 10.3784 -16.8018
lclavicle 9.07452e-014 -9.54166e-015
lhumerus -29.3244 9.7213 83.5305
lradius 27.018
lwrist -15.1886
lhand -1.29458 40.1117
lfingers 7.12502
lthumb 24.3498 68.5848
rfemur -4.5239 -3.60715 6.62531
rtibia 19.8571
rfoot -15.0056 -16.2988
rtoes -16.9284
lfemur -6.38553 10.1458 -25.9298
ltibia 16.5667
lfoot -13.7082 -0.527642
ltoes -11.6561
867
root 10.7078 17.8109 -12.0438 1.05112 -49.4207 4.71619
lowerback -2.52053 2.49394 -3.19983
upperback -0.347669 3.40542 0.477664
thorax 0.838937 1.69232 2.38308
lowerneck -20.8062 6.87987 -2.81939
upperneck 25.2758 11.3795 -2.40213
head 11.7159 4.4628 1.3793
rclavicle -1.29856e-013 -4.37326e-015
rhumerus -27.9727 -12.7627 -81.354
rradius 27.5291
rwrist -0.0957421
rhand -16.0135 13.06
rfingers 7.12502
rthumb 10.1872 -16.6734
lclavicle -1.29856e-013 -4.37326e-015
lhumerus -29.4293 9.79311 83.5576
lradius 27.1655
lwrist -15.2115
lhand -1.4177 40.1686
lfingers 7.12502
lthumb 24.2318 68.6575
rfemur -4.54577 -3.54617 6.73573
rtibia 19.9209
rfoot -15.0552 -16.2693
rtoes -16.8105
lfemur -6.31533 10.0715 -25.7964
ltibia 16.4897
lfoot -13.531 -0.416054
ltoes -12.2976
868
root 10.7083 17.8128 -12.0435 1.11649 -49.4744 4.67945
lowerback -2.54094 2.53173 -3.22251
upperback -0.365615 3.45652 0.505142
thorax 0.825599 1.71827 2.42557
lowerneck -20.9151 6.84355 -3.05078
upperneck 25.4928 11.3399 -2.10339
head 11.7833 4.45087 1.52675
rclavicle -9.2584e-014 7.95139e-016
rhumerus -28.0455 -12.6473 -81.3294
rradius 27.658
rwrist -0.217551
rhand -16.1314 13.1792
rfingers 7.12502
rthumb 10.0734 -16.5597
lclavicle -9.2584e-014 7.95139e-016
lhumerus -29.3417 9.96403 83.5937
lradius 26.9865
lwrist -15.3349
lhand -1.79947 40.1238
lfingers 7.12502
lthumb 23.8657 68.6611
rfemur -4.65063 -3.57596 6.77226
rtibia 19.9678
rfoot -14.9484 -16.2606
rtoes -17.2092
lfemur -6.34123 10.1361 -25.7707
ltibia 16.4395
lfoot -13.3723 -0.448218
ltoes -11.3027
869
root 10.7 17.8138 -12.0458 0.903495 -49.602 4.86981
lowerback -2.51909 2.58867 -3.48071
upperback -0.366198 3.53875 0.493173
thorax 0.792521 1.75934 2.55786
lowerneck -21.2652 6.8137 -3.16905
upperneck 26.0389 11.2957 -1.75907
head 12.0301 4.43144 1.69352
rclavicle 1.01803e-013 7.95139e-016
rhumerus -28.0875 -12.8707 -81.2335
rradius 27.5533
rwrist 0.0549438
rhand -15.981 13.427
rfingers 7.12502
rthumb 10.2185 -16.3048
lclavicle 1.01803e-013 7.95139e-016
lhumerus -29.2396 9.27219 83.8183
lradius 26.7599
lwrist -14.5992
lhand -2.23469 40.0774
lfingers 7.12502
lthumb 23.4483 68.6686
rfemur -4.63405 -3.26872 6.70403
rtibia 19.971
rfoot -14.8622 -16.5235
rtoes -17.4888
lfemur -6.30733 10.3442 -25.8437
ltibia 16.4823
lfoot -13.3033 -0.569216
ltoes -10.1127
870
root 10.6917 17.8131 -12.0494 0.76434 -49.6762 4.89206
lowerback -2.43065 2.60828 -3.59434
upperback -0.357452 3.56475 0.496746
thorax 0.743043 1.77297 2.62096
lowerneck -21.3197 6.78381 -3.08574
upperneck 26.2636 11.235 -1.73137
head 12.1326 4.40312 1.69013
rclavicle -1.0958e-014 5.96354e-015
rhumerus -28.0718 -13.2163 -81.1439
rradius 27.3239
rwrist 0.46478
rhand -15.7388 13.9113
rfingers 7.12502
rthumb 10.4521 -15.8089
lclavicle -1.0958e-014 5.96354e-015
lhumerus -29.3763 8.62288 83.9755
lradius 26.9915
lwrist -13.8601
lhand -2.39933 40.2179
lfingers 7.12502
lthumb 23.2903 68.8292
rfemur -4.53759 -2.93082 6.76346
rtibia 19.9889
rfoot -14.8314 -16.83
rtoes -17.5945
lfemur -6.20553 10.6372 -25.7996
ltibia 16.5447
lfoot -13.6064 -0.728115
ltoes -9.72478
871
root 10.699 17.8105 -12.0468 0.862585 -49.4681 4.90732
lowerback -2.47984 2.52944 -3.51948
upperback -0.40059 3.45888 0.472819
thorax 0.739732 1.72079 2.55368
lowerneck -20.8924 6.71183 -2.83207
upperneck 25.8303 11.1369 -2.22325
head 11.9343 4.34626 1.42604
rclavicle -5.16095e-014 2.78299e-015
rhumerus -27.9825 -13.2982 -81.1248
rradius 27.2105
rwrist 0.563573
rhand -15.5538 14.0063
rfingers 7.12502
rthumb 10.6306 -15.7048
lclavicle -5.16095e-014 2.78299e-015
lhumerus -29.6162 8.87172 83.9303
lradius 27.4862
lwrist -14.0366
lhand -2.26427 40.4932
lfingers 7.12502
lthumb 23.4199 69.0881
rfemur -4.60393 -3.35325 6.69959
rtibia 20.0237
rfoot -14.7757 -16.696
rtoes -17.9746
lfemur -6.31712 10.5421 -25.8931
ltibia 16.5757
lfoot -13.929 -0.788019
ltoes -10.0597
872
root 10.7063 17.8086 -12.0439 0.94696 -49.3388 4.95252
lowerback -2.54994 2.56 -3.45632
upperback -0.436183 3.50047 0.395859
thorax 0.748121 1.74191 2.44306
lowerneck -20.4933 6.55333 -2.57006
upperneck 25.3291 10.8979 -2.6758
head 11.7132 4.23629 1.15518
rclavicle -3.44891e-014 7.55382e-015
rhumerus -27.9703 -13.4785 -81.1184
rradius 27.2211
rwrist 0.476897
rhand -15.4372 13.7415
rfingers 7.12502
rthumb 10.743 -15.9638
lclavicle -3.44891e-014 7.55382e-015
lhumerus -29.5428 9.0722 83.8827
lradius 27.4254
lwrist -14.4492
lhand -2.33969 40.448
lfingers 7.12502
lthumb 23.3475 69.052
rfemur -4.67696 -3.62645 6.59035
rtibia 20.0594
rfoot -14.9151 -16.4553
rtoes -17.2297
lfemur -6.43698 10.3142 -26.0029
ltibia 16.5881
lfoot -13.9893 -0.666281
ltoes -10.9502
873
root 10.7053 17.8096 -12.0424 0.95654 -49.3718 4.9452
lowerback -2.56596 2.65661 -3.42803
upperback -0.436333 3.62977 0.314684
thorax 0.75528 1.80639 2.34795
lowerneck -20.5137 6.37037 -2.51477
upperneck 25.3051 10.6087 -2.64222
head 11.7086 4.1176 1.11352
rclavicle 5.58585e-014 -1.98785e-015
rhumerus -28.0535 -13.7412 -81.1329
rradius 27.3121
rwrist 0.490963
rhand -15.4726 13.4597
rfingers 7.12502
rthumb 10.7089 -16.2474
lclavicle 5.58585e-014 -1.98785e-015
lhumerus -29.3066 8.45872 83.9905
lradius 27.0859
lwrist -14.1259
lhand -2.68095 40.281
lfingers 7.12502
lthumb 23.0201 68.9263
rfemur -4.67886 -3.507 6.57589
rtibia 20.1031
rfoot -15.1096 -16.3774
rtoes -15.8757
lfemur -6.4139 10.2097 -25.9965
ltibia 16.5579
lfoot -13.9423 -0.57297
ltoes -10.9488
874
root 10.7054 17.8086 -12.0391 0.915198 -49.3637 5.08056
lowerback -2.65822 2.63959 -3.50012
upperback -0.463962 3.61225 0.272675
thorax 0.777917 1.79728 2.34868
lowerneck -20.7 6.25087 -2.88886
upperneck 25.6249 10.4376 -2.10568
head 11.8084 4.05937 1.35397
rclavicle -3.61043e-014 -9.93923e-015
rhumerus -28.0924 -13.6536 -81.1862
rradius 27.3402
rwrist 0.499304
rhand -15.5204 13.3984
rfingers 7.12502
rthumb 10.6628 -16.3111
lclavicle -3.61043e-014 -9.93923e-015
lhumerus -29.3158 8.16449 84.0458
lradius 27.0623
lwrist -13.845
lhand -2.76441 40.3268
lfingers 7.12502
lthumb 22.9401 68.982
rfemur -4.75794 -3.63291 6.46654
rtibia 20.1226
rfoot -15.0245 -16.3408
rtoes -16.1176
lfemur -6.45671 10.0321 -26.0925
ltibia 16.5109
lfoot -13.6356 -0.486278
ltoes -10.5003
875
root 10.7062 17.8075 -12.0373 0.885595 -49.4063 5.17576
lowerback -2.69597 2.59211 -3.59404
upperback -0.510789 3.55173 0.301362
thorax 0.747355 1.76803 2.42938
lowerneck -20.6411 6.19743 -3.29108
upperneck 25.7291 10.3729 -1.67898
head 11.7838 4.04659 1.56142
rclavicle 5.19325e-015 -3.97569e-016
rhumerus -28.0727 -13.502 -81.1673
rradius 27.2699
rwrist 0.569155
rhand -15.3334 13.5192
rfingers 7.12502
rthumb 10.8432 -16.1809
lclavicle 5.19325e-015 -3.97569e-016
lhumerus -29.5067 8.52676 83.9675
lradius 27.2492
lwrist -14.1061
lhand -2.41125 40.4248
lfingers 7.12502
lthumb 23.2789 69.0376
rfemur -4.80747 -3.72921 6.39325
rtibia 20.0785
rfoot -14.9099 -16.305
rtoes -16.6812
lfemur -6.50788 10.0833 -26.1684
ltibia 16.5049
lfoot -13.3695 -0.414925
ltoes -10.4625
876
root 10.7058 17.8099 -12.0361 1.05864 -49.4494 4.96024
lowerback -2.67348 2.56865 -3.46333
upperback -0.552787 3.51464 0.355389
thorax 0.698637 1.75126 2.40856
lowerneck -20.5655 6.15988 -3.29905
upperneck 25.7202 10.3417 -1.76425
head 11.772 4.02135 1.52367
rclavicle 3.05507e-014 0
rhumerus -28.0469 -13.5394 -81.1292
rradius 27.2208
rwrist 0.630193
rhand -15.0227 13.2122
rfingers 7.12502
rthumb 11.1428 -16.4719
lclavicle 3.05507e-014 0
lhumerus -29.6596 8.56868 83.9406
lradius 27.4067
lwrist -14.1266
lhand -2.21478 40.2711
lfingers 7.12502
lthumb 23.4674 68.8599
rfemur -4.76767 -3.65266 6.54245
rtibia 19.9845
rfoot -14.9924 -16.2685
rtoes -16.4583
lfemur -6.51181 10.238 -26.0456
ltibia 16.497
lfoot -13.434 -0.398969
ltoes -9.86873
